# xmcd
#
# Track frame offsets: 
#        150
#        17027
#        31294
#        49719
#        68391
#        89504
#        107982
#        126671
#        140938
#        160595
#        180893
#        195115
#
# Disc length: 2811 seconds
#
# Revision: 0
# Processed by: cddbd v1.5.2PL0 Copyright (c) Steve Scherf et al.
# Submitted via: ExactAudioCopy v1.3
#
DISCID=9a0af90c
DTITLE=Shelley King - Building A Fire
DYEAR=2014
DGENRE=Country Blues
TTITLE0=Building A Fire
TTITLE1=Grace
TTITLE2=The Ones You Don't See Coming
TTITLE3=Talkin' Bout The Weather
TTITLE4=I Know I've Been Changed
TTITLE5=Lost In You
TTITLE6=Things You Do
TTITLE7=The Real Thing
TTITLE8=When I Go Away
TTITLE9=1940's Eyes
TTITLE10=Hard Times Are No Match For Sweet Dreams
TTITLE11=Moonlight
EXTD=
EXTT0=
EXTT1=
EXTT2=
EXTT3=
EXTT4=
EXTT5=
EXTT6=
EXTT7=
EXTT8=
EXTT9=
EXTT10=
EXTT11=
PLAYORDER=
